<svg width="116" height="30" viewBox="0 0 116 30" fill="none" xmlns="http://www.w3.org/2000/svg">
<path d="M11.0247 28.9999L10.9533 29.1642C9.73585 28.9212 8.497 28.8015 7.25555 28.807C6.89827 28.807 5.73715 28.807 3.81146 28.7605C3.45419 28.7605 2.59317 28.7819 1.22482 28.8284C1.22482 28.7819 1.18195 28.7176 1.14265 28.6319C1.1056 28.5514 1.06261 28.4738 1.01403 28.3997C0.972651 28.3355 0.922097 28.2777 0.863978 28.2282C0.825806 28.1928 0.783876 28.1616 0.738934 28.1353C0.688916 27.7494 0.660335 27.5065 0.649616 27.4208C0.646047 27.3887 0.646047 27.3563 0.649616 27.3243C0.662478 27.0958 0.662478 26.8668 0.649616 26.6383C0.624608 26.2811 0.599599 25.9238 0.567444 25.5415C0.53529 25.1592 0.520999 24.9734 0.520999 24.9413C0.428109 22.937 0.367372 21.6223 0.335218 20.9899C0.335218 20.5576 0.335218 19.9395 0.335218 19.1392C0.335218 18.3389 0.335218 17.8316 0.335218 17.6137C0.335218 17.46 0.335218 17.21 0.310209 16.8634C0.2852 16.5169 0.288773 16.2489 0.288773 16.0667C0.288773 15.7094 0.288773 15.1235 0.288773 14.3447C0.288773 13.5658 0.288773 12.9692 0.288773 12.5583C0.288773 11.9581 0.267337 7.00274 0.220892 5.99881C0.220892 5.81303 0.174447 4.80434 0.0815564 2.97273V2.76551C0.0371748 2.70421 0.0134046 2.63041 0.0136741 2.55473C0.0146888 2.46621 0.0218519 2.37787 0.0351109 2.29034C0.049251 2.21848 0.0576139 2.14561 0.0601197 2.07241C0.0601197 2.0081 0.0601197 1.9295 0.0601197 1.82947C0.0601197 1.72943 0.0601202 1.63654 0.0815564 1.5508C0.0866793 1.4699 0.0866793 1.38875 0.0815564 1.30785C0.105992 0.885425 0.228302 0.474464 0.438827 0.107422H0.553153C0.79967 0.153867 1.21053 0.200312 1.78931 0.246757C2.23143 0.267976 2.6699 0.337461 3.09692 0.453975C3.43363 0.556307 3.78942 0.579538 4.13658 0.521857C4.20579 0.497786 4.28039 0.493737 4.35181 0.510169C4.42322 0.526601 4.48856 0.562845 4.54029 0.614745C4.59644 0.666931 4.63933 0.731747 4.66543 0.80382C4.69152 0.875893 4.70006 0.953148 4.69034 1.02918V1.26141C4.6442 1.42794 4.60958 1.59745 4.58674 1.76873C4.56103 1.96056 4.54909 2.15398 4.55101 2.34751V2.81196C4.55101 2.90128 4.55101 3.09421 4.57602 3.38717C4.60103 3.68013 4.59745 3.85162 4.59745 3.89806C4.75108 6.73122 4.79038 12.9977 4.71178 14.384C4.71178 14.6483 4.71178 15.0413 4.71178 15.5629C4.71178 16.0846 4.74394 16.3811 4.74394 16.4418C4.74394 16.7348 4.74394 17.4208 4.76894 18.4997C4.79395 19.5787 4.8011 20.4111 4.81539 21.0006C4.81539 21.0935 4.84397 21.8688 4.90828 23.3336C4.90828 23.4408 4.93329 23.6122 4.94043 23.8409C4.94758 24.0696 4.94043 24.2268 4.94043 24.3054H5.35487C7.49849 24.3518 8.63818 24.3804 8.82039 24.3982C8.94543 24.3982 9.4992 24.4447 10.4853 24.534C10.8398 24.5955 11.1779 24.7292 11.4785 24.927L11.5035 24.9734C11.4501 25.2788 11.4345 25.5896 11.457 25.8988C11.4868 26.2103 11.4552 26.5247 11.3642 26.8241C11.2856 27.0706 11.2498 27.2028 11.2498 27.2171C11.2426 27.2798 11.2307 27.342 11.2141 27.4029C11.1963 27.466 11.1844 27.5305 11.1784 27.5958C11.1809 27.6631 11.1893 27.73 11.2034 27.7959C11.2181 27.8399 11.2181 27.8876 11.2034 27.9316C11.0963 28.2781 11.0362 28.6374 11.0247 28.9999Z" fill="black"/>
<path d="M12.0469 16.4267H12.0719V11.6893C12.0691 10.8715 12.1614 10.0563 12.347 9.25985C12.5132 8.54879 12.7614 7.85941 13.0865 7.20554C13.3802 6.62655 13.7399 6.08347 14.1583 5.58711C14.2334 5.49422 14.3155 5.40132 14.4013 5.30843C14.487 5.21554 14.5871 5.11551 14.7014 5.00833L14.9658 4.75467C14.9963 4.72275 15.0238 4.68806 15.0479 4.65106C15.0721 4.61405 15.0996 4.57937 15.1301 4.54745C15.1628 4.51037 15.2015 4.47898 15.2444 4.45456L16.4234 3.74002C16.5949 3.66844 16.7733 3.61457 16.9558 3.57924C17.4426 3.43794 17.9506 3.38352 18.4563 3.41847H18.8136C18.933 3.41602 19.0525 3.42319 19.1708 3.43991C20.0124 3.55831 20.8189 3.85555 21.536 4.31165C21.5619 4.32645 21.5859 4.34446 21.6074 4.36524C21.6896 4.44027 21.9111 4.63319 22.272 4.94044C22.789 5.49486 23.1759 6.15761 23.4045 6.88043C23.671 7.61822 23.88 8.3755 24.0297 9.14552C24.0762 9.40633 24.1298 10.0173 24.1905 10.9712C24.2048 11.2498 24.2048 11.7929 24.1905 12.6003C24.1655 13.4113 24.1476 13.8686 24.1333 13.9758C24.0404 14.7154 23.9869 15.2084 23.969 15.4549C23.9404 16.2731 23.869 17.152 23.7618 18.0916C23.7618 18.1809 23.6832 18.8454 23.576 20.078C23.5104 21.36 23.3055 22.631 22.9651 23.8686C22.9025 24.0433 22.8489 24.2209 22.8043 24.401C22.7471 24.6153 22.7007 24.7868 22.6721 24.9083C22.6705 24.9237 22.6705 24.9393 22.6721 24.9547C22.5935 25.1798 22.4899 25.4406 22.3541 25.7407C22.3255 25.8015 22.2827 25.8801 22.2291 25.9694C22.1755 26.0587 22.1326 26.1409 22.1005 26.2016C22.0683 26.2624 22.0362 26.3409 21.9969 26.4338C21.9613 26.5152 21.935 26.6003 21.9183 26.6875L21.8468 26.7554C21.4502 27.2734 21.2109 27.5843 21.1323 27.6914C21.1138 27.7189 21.0923 27.7441 21.068 27.7665C20.5558 28.2811 19.9271 28.6647 19.2352 28.8847C18.6583 29.0715 18.0551 29.1643 17.4488 29.1598C16.7072 29.1849 15.9709 29.0266 15.3052 28.6989C15.0628 28.5602 14.8385 28.3922 14.6371 28.1988L14.4763 28.0844L14.3013 27.9558L14.1405 27.8415C14.0871 27.7972 14.0434 27.7425 14.0119 27.6807C13.8849 27.6276 13.7705 27.5485 13.676 27.4485C13.5647 27.3189 13.4644 27.1802 13.3759 27.0341L13.1794 26.7089C13.029 26.5251 12.9515 26.2924 12.9615 26.0551C12.9636 26.0361 12.9636 26.017 12.9615 25.998C12.9615 25.9765 12.9615 25.948 12.9401 25.9194C12.9341 25.893 12.9218 25.8685 12.9043 25.8479C12.6114 24.7999 12.4577 24.2295 12.4434 24.1366C12.3299 23.4564 12.2524 22.7707 12.2112 22.0823C12.1779 21.3677 12.1314 19.9494 12.0719 17.8272L12.0469 16.4267ZM16.0233 16.4088V18.3524H15.9983C16.1102 20.7104 16.1722 22.0585 16.1841 22.3967C16.2172 23.0594 16.3496 23.7133 16.5771 24.3367C16.6544 24.5919 16.8077 24.8175 17.0165 24.9833C17.1986 25.121 17.4249 25.1871 17.6524 25.1691C17.7634 25.1663 17.8721 25.1378 17.9701 25.0857C18.0681 25.0336 18.1526 24.9594 18.2169 24.869C18.4719 24.5644 18.6758 24.2206 18.8207 23.8508C19.0656 23.1725 19.2567 22.4761 19.3924 21.7679C19.4376 21.5535 19.5305 20.7521 19.671 19.3635C19.671 19.3182 19.733 18.6096 19.8568 17.2377C19.9235 16.5232 19.9664 16.1087 19.9854 15.9944V15.9015C19.9997 15.6443 20.014 15.3692 20.0283 15.0762C20.0283 14.7618 20.0605 14.4117 20.0855 14.0258C20.1105 13.64 20.1283 13.347 20.1426 13.1469C20.1426 13.0398 20.1498 12.8969 20.1641 12.7182C20.1819 12.5432 20.1926 12.3788 20.1998 12.2216C20.2069 12.0644 20.1998 11.9501 20.2319 11.8358C20.2319 11.8143 20.2319 11.7965 20.2319 11.7786C20.2628 10.8528 20.1532 9.9277 19.9068 9.03477C19.8019 8.64243 19.6545 8.26268 19.4674 7.90222C19.4373 7.83277 19.3932 7.77027 19.3379 7.71864C19.2826 7.667 19.2172 7.62733 19.1458 7.60211C18.9846 7.52237 18.8124 7.46698 18.6349 7.43777C18.5001 7.39571 18.3576 7.38448 18.2178 7.40488C18.0781 7.42529 17.9447 7.47682 17.8275 7.55567C17.4176 7.83868 17.0709 8.20364 16.8093 8.62748C16.4535 9.20352 16.2257 9.84927 16.1412 10.521C16.0769 11.0283 16.034 11.6464 16.0019 12.3717C15.9749 12.7056 15.9666 13.0408 15.9769 13.3756V15.2584C15.9769 15.3835 15.9769 15.5728 15.9769 15.8265C15.9769 16.0801 16.0233 16.2802 16.0233 16.4088Z" fill="black"/>
<path d="M32.9114 18.9092C32.9077 18.8807 32.9077 18.8519 32.9114 18.8234C32.9364 18.7413 32.9936 18.5198 33.0829 18.1625L33.1293 18.1411C33.3618 18.1514 33.5947 18.1322 33.8224 18.0839C34.0129 18.0414 34.2064 18.0139 34.4012 18.0017C34.6178 17.9923 34.8348 18.0079 35.0479 18.0482C35.282 18.1103 35.5283 18.1103 35.7624 18.0482C35.8307 18.0335 35.9013 18.0335 35.9696 18.0482H36.2126H36.502C36.5805 18.0483 36.6583 18.0325 36.7306 18.0017C36.7306 18.0017 36.8628 18.0267 37.0879 18.0732C37.0842 18.1392 37.0759 18.2049 37.0629 18.2697C37.0528 18.3384 37.0528 18.4082 37.0629 18.4769C37.0689 18.5281 37.0808 18.5785 37.0986 18.6269C37.1278 18.7023 37.1505 18.78 37.1665 18.8592C37.1796 18.9239 37.1867 18.9897 37.1879 19.0557C37.1857 19.137 37.1785 19.2181 37.1665 19.2986C37.1665 19.4058 37.1415 19.4737 37.1415 19.5058C37.1415 19.538 37.1415 19.6988 37.1415 19.8988C37.1415 20.0989 37.1415 20.2561 37.1093 20.3847C37.1093 20.4455 37.0736 20.5169 37.0486 20.6027C37.0236 20.6884 36.9986 20.7813 36.97 20.8813C36.9414 20.9814 36.9164 21.0635 36.8985 21.1243C36.8807 21.185 36.8521 21.3601 36.8056 21.5494C36.7592 21.7388 36.7235 21.8853 36.6913 21.9781C36.5243 22.6933 36.1517 23.3441 35.6195 23.8502C35.3652 24.0786 35.0941 24.2876 34.8085 24.4755C34.6625 24.5763 34.5083 24.6647 34.3476 24.7398C34.1667 24.8249 33.9954 24.9291 33.8367 25.0507C33.6955 25.0705 33.561 25.1232 33.4437 25.2043C33.3238 25.2904 33.1756 25.3275 33.0293 25.3079C33.0171 25.3066 33.0048 25.3079 32.9931 25.3116C32.9814 25.3153 32.9707 25.3213 32.9614 25.3293C32.8688 25.3902 32.7659 25.4338 32.6577 25.458C32.5238 25.4768 32.3879 25.4768 32.254 25.458C32.0932 25.458 31.9896 25.4329 31.9432 25.4329C31.6002 25.4458 31.2592 25.3746 30.95 25.2257C30.9082 25.2174 30.8683 25.2017 30.8321 25.1793C30.7889 25.1595 30.7471 25.1369 30.707 25.1114C30.6706 25.0928 30.63 25.0842 30.5891 25.0864C30.5358 25.0876 30.4838 25.1036 30.4391 25.1328C30.4309 25.1392 30.4209 25.1427 30.4105 25.1427C30.4001 25.1427 30.3901 25.1392 30.3819 25.1328L30.314 25.0971C30.2971 25.0847 30.2775 25.0761 30.2569 25.0721C30.2164 25.0452 30.1733 25.0224 30.1283 25.0042C30.0851 24.9803 30.0378 24.9645 29.9889 24.9578L29.8389 24.9792C29.825 24.9881 29.8089 24.9929 29.7924 24.9929C29.7759 24.9929 29.7598 24.9881 29.746 24.9792C29.6388 24.9042 29.4959 24.8149 29.3208 24.7148C29.1458 24.6148 28.9636 24.5183 28.8242 24.4254C28.6858 24.3419 28.5645 24.2328 28.4669 24.1039C28.0051 23.5737 27.5947 23.0006 27.2415 22.3926C26.9576 21.8309 26.7635 21.2281 26.6663 20.6062C26.6663 20.5276 26.602 20.1132 26.527 19.3593C26.2895 16.9854 26.1964 14.5992 26.2483 12.2139C26.2483 11.7674 26.2876 11.1421 26.3162 10.3168C26.3448 9.49154 26.3626 8.93063 26.3626 8.60551C26.381 8.33668 26.381 8.06691 26.3626 7.79808C26.3483 7.44319 26.3412 7.24312 26.3412 7.19786C26.3412 7.19786 26.3412 7.08354 26.3626 6.89776C26.4091 6.40473 26.4341 6.1332 26.4341 6.08675C26.4585 5.85367 26.4967 5.62224 26.5484 5.39365C26.6889 4.82678 26.789 4.43378 26.8485 4.21465C26.9605 3.88078 27.1003 3.55691 27.2665 3.24645C27.6027 2.59031 28.0568 2.0017 28.6063 1.51012C29.0712 1.10555 29.6132 0.799286 30.1997 0.609797C30.7491 0.424978 31.315 0.293372 31.8896 0.216797C32.4153 0.221252 32.9398 0.267852 33.458 0.356138C33.8325 0.434271 34.1936 0.566664 34.5298 0.749132C35.0449 0.998773 35.5023 1.35283 35.8732 1.78879C36.0646 1.98392 36.2413 2.19289 36.4019 2.41401C36.7902 3.01982 37.029 3.70924 37.0986 4.42545C37.1593 4.99351 37.2058 5.39365 37.2344 5.62588C37.2629 5.8581 37.2808 6.05102 37.3273 6.29754C37.3273 6.34399 37.363 6.40473 37.3844 6.47975C37.4038 6.53265 37.4158 6.58794 37.4201 6.64409C37.4568 6.76008 37.4796 6.88001 37.488 7.00136C37.4452 7.67661 37.4059 8.10176 37.3737 8.26968C37.3415 8.43759 37.2201 8.83416 37.0164 9.54156C36.9843 9.63445 36.9057 9.67375 36.7842 9.65946C36.4679 9.5864 36.1467 9.53625 35.8231 9.50941L34.7263 9.39151C34.4069 9.35836 34.0904 9.30103 33.7796 9.22002C33.6617 9.1988 33.5419 9.19041 33.4223 9.19501C33.3508 9.20637 33.2777 9.20021 33.2092 9.17705C33.1406 9.1539 33.0787 9.11444 33.0288 9.06206C32.9789 9.00969 32.9425 8.94598 32.9226 8.87641C32.9028 8.80684 32.9002 8.73349 32.915 8.66268C32.929 8.4991 32.9601 8.33745 33.0079 8.18036C33.1466 7.73924 33.1785 7.27144 33.1007 6.81558C33.0023 6.27307 32.9331 5.72566 32.8935 5.17571C32.9013 5.07231 32.8829 4.96862 32.84 4.87419C32.7972 4.77976 32.7313 4.69763 32.6484 4.63536C32.5654 4.57309 32.4682 4.53267 32.3656 4.51784C32.2629 4.50301 32.1582 4.51424 32.0611 4.55049C31.8122 4.59333 31.5801 4.70458 31.3908 4.87178C31.2015 5.03898 31.0625 5.25555 30.9893 5.49726C30.7548 6.22875 30.6449 6.99444 30.6642 7.76235C30.6642 8.24109 30.6642 8.78772 30.6177 9.40222C30.5248 12.0079 30.5093 13.98 30.5713 15.3186V15.7938C30.5713 15.9867 30.5713 16.1725 30.5713 16.3476C30.5713 16.5226 30.5713 16.6691 30.5713 16.8013V16.8406C30.6022 17.2407 30.7094 18.2518 30.8928 19.8738C30.9378 20.2093 31.0836 20.5233 31.3108 20.7741C31.378 20.834 31.4555 20.8812 31.5395 20.9135C31.623 20.9392 31.7094 20.9548 31.7967 20.9599C32.2897 21.0671 32.5827 20.8885 32.672 20.4276C32.7042 20.2275 32.7506 19.9417 32.8114 19.5737C32.8721 19.2057 32.8935 19.0521 32.9114 18.9092Z" fill="black"/>
<path d="M41.7715 28.159C41.7562 28.5228 41.6937 28.8831 41.5857 29.2308L41.5178 29.2773C41.3463 29.2773 40.9783 29.2415 40.4067 29.2201C39.8351 29.1987 39.3992 29.1629 39.0919 29.1165C38.6721 29.0411 38.2466 29.0017 37.8201 28.9986C37.7495 29.0026 37.6789 28.9917 37.6128 28.9664C37.5643 28.941 37.5264 28.8992 37.5057 28.8485C37.4799 28.7629 37.469 28.6735 37.4735 28.5842L37.3699 28.5377L37.2413 28.4913C37.202 28.479 37.1637 28.4634 37.127 28.4448C37.2198 27.8756 37.2734 27.5755 37.2877 27.5445C37.5259 26.4655 37.6724 25.8332 37.7272 25.6474L38.7668 21.696C39.0598 20.617 39.3218 19.6393 39.5528 18.7628C40.0316 16.9764 40.3067 15.9404 40.3853 15.6653C40.5067 15.2008 40.6997 14.5256 40.964 13.6324C41.2284 12.7392 41.4178 12.0747 41.5392 11.6424C42.0561 9.78935 42.3705 8.55676 42.4824 7.94464C42.4824 7.94464 42.4824 7.91249 42.4824 7.89462C42.4824 7.79101 42.536 7.41588 42.6182 6.77279C42.6338 6.65021 42.689 6.53606 42.7754 6.44768C42.8068 6.41817 42.8355 6.38589 42.8611 6.35122L42.9898 6.0511H43.4506C43.4547 6.00378 43.4681 5.95774 43.4901 5.91567C43.5121 5.87359 43.5423 5.83633 43.5789 5.80606C43.6155 5.77579 43.6577 5.75311 43.7032 5.73937C43.7487 5.72562 43.7964 5.72107 43.8436 5.72599C44.0598 5.72139 44.2757 5.70589 44.4903 5.67955L45.1191 5.61523H45.2013C45.3753 5.62999 45.5475 5.66109 45.7157 5.70813L45.8765 5.89033C45.9487 5.88562 46.0198 5.86995 46.0873 5.84389L46.2945 5.77601C46.5255 5.94559 46.7019 6.17907 46.8018 6.44768C47.0554 7.17421 47.2338 7.92483 47.3342 8.68776C47.4615 9.57603 47.6392 10.4563 47.8665 11.3244C47.8951 11.4459 48.0487 12.2569 48.3274 13.7503L48.3524 13.8896C48.381 14.0254 48.4989 14.5077 48.7097 15.3187C48.9205 16.1297 49.0669 16.7692 49.1705 17.2015L49.5278 18.6913C49.6922 19.363 49.8101 19.8739 49.8851 20.2312C49.9458 20.4777 50.0387 20.8528 50.1602 21.3637C50.2817 21.8746 50.3781 22.2569 50.4389 22.5177C50.4853 22.6892 50.5317 22.875 50.5782 23.0608C50.6246 23.2465 50.6639 23.4359 50.7032 23.6038C50.7425 23.7717 50.7854 23.9611 50.8319 24.1254C50.8783 24.2898 50.9212 24.4827 50.9569 24.6792C50.9926 24.8757 51.0391 25.0543 51.0855 25.2222C51.132 25.3902 51.2177 25.7153 51.3392 26.194C51.4606 26.6728 51.5535 27.0407 51.6178 27.3016C51.7072 27.6874 51.7786 28.1018 51.8394 28.5413C51.8447 28.5768 51.8447 28.6129 51.8394 28.6485C51.8394 28.7485 51.8108 28.9093 51.7715 29.1272C51.7381 29.2677 51.6381 29.3213 51.4714 29.288C51.3171 29.2882 51.1656 29.3288 51.0319 29.4059C50.6442 29.5706 50.2277 29.6568 49.8065 29.6595C49.5469 29.6642 49.2899 29.7113 49.0455 29.7989C48.9709 29.8259 48.8926 29.8415 48.8133 29.8453L47.9344 29.9847L47.7951 29.9596C47.6879 29.4976 47.5069 28.7044 47.252 27.5802C47.0519 26.6871 46.8947 25.9511 46.7411 25.3794C46.7129 25.2611 46.6466 25.1554 46.5523 25.0785C46.458 25.0017 46.3411 24.958 46.2195 24.9543L42.8183 24.8435C42.6906 24.841 42.5658 24.8816 42.464 24.9588C42.3623 25.0359 42.2895 25.1451 42.2574 25.2687C42.1859 25.4973 42.1359 25.6688 42.1073 25.7796V25.801C42.0488 25.9481 41.9987 26.0984 41.9573 26.2512C41.9144 26.4143 41.8834 26.5802 41.8644 26.7478C41.8429 26.9336 41.8251 27.0765 41.8179 27.1765C41.8108 27.2765 41.8001 27.4516 41.7822 27.6981C41.7643 27.9446 41.7715 28.0983 41.7715 28.159ZM43.6579 19.9418C43.634 20.0224 43.6287 20.1074 43.6424 20.1904C43.6561 20.2734 43.6883 20.3522 43.7368 20.421C43.7853 20.4897 43.8487 20.5466 43.9222 20.5874C43.9958 20.6281 44.0776 20.6517 44.1616 20.6563H44.1866L44.9012 20.7028C44.988 20.7061 45.0744 20.6891 45.1535 20.6531C45.2326 20.6171 45.3022 20.5631 45.3567 20.4954C45.4112 20.4277 45.4491 20.3482 45.4674 20.2632C45.4857 20.1783 45.4839 20.0902 45.4621 20.0061C45.3728 19.6488 45.2584 19.1951 45.1262 18.6699C44.8881 17.7529 44.719 17.0479 44.6189 16.5549H44.5725C44.4796 16.8621 44.3617 17.2694 44.2152 17.8232C44.0687 18.3769 43.9437 18.8593 43.8222 19.3166C43.7686 19.5345 43.7114 19.7489 43.6579 19.9561V19.9418Z" fill="black"/>
<path d="M62.8711 25.0241L62.8032 25.1849C61.5855 24.944 60.3469 24.8243 59.1055 24.8276C58.7339 24.8419 57.5859 24.8264 55.6614 24.7812C55.3065 24.7812 54.4431 24.8038 53.0712 24.8491C53.0712 24.8026 53.0283 24.7383 52.9926 24.6526C52.9556 24.5732 52.9126 24.4968 52.864 24.4239C52.8225 24.3588 52.772 24.2998 52.7139 24.2489C52.6744 24.2136 52.6313 24.1824 52.5853 24.156C52.5389 23.7701 52.5103 23.5272 52.4996 23.4236C52.496 23.3915 52.496 23.3592 52.4996 23.3271C52.5119 23.0998 52.5119 22.872 52.4996 22.6447C52.4781 22.2874 52.4495 21.9302 52.421 21.5443C52.3924 21.1585 52.3745 20.9763 52.3745 20.9441C52.2816 18.9434 52.2197 17.6263 52.1887 16.9927C52.1887 16.5604 52.1887 15.9459 52.1887 15.142C52.1887 14.3382 52.1887 13.8344 52.1887 13.6165C52.1887 13.4617 52.1816 13.2116 52.1673 12.8662C52.1673 12.5089 52.1459 12.2553 52.1459 12.0695C52.1459 11.7122 52.1459 11.1263 52.1459 10.3475C52.1459 9.56861 52.1459 8.97197 52.1459 8.56111C52.1459 7.9609 52.1244 7.15704 52.078 6.15668C52.078 5.9709 52.0315 4.96221 51.9386 3.1306V2.91981C51.8921 2.86081 51.8669 2.78776 51.8672 2.71259C51.8678 2.62391 51.8762 2.53544 51.8922 2.44821C51.904 2.3749 51.9112 2.30092 51.9136 2.22671C51.9094 2.14578 51.9094 2.06469 51.9136 1.98376C51.9136 1.88372 51.9136 1.79084 51.9351 1.70867C51.9565 1.62649 51.9351 1.54075 51.9351 1.46572C51.9617 1.04256 52.0839 0.630934 52.2923 0.261719H52.4102C52.6568 0.308164 53.0676 0.354609 53.6464 0.401054C54.0869 0.426138 54.5238 0.495562 54.9504 0.608272C55.2866 0.713224 55.6427 0.737699 55.9901 0.679725C56.06 0.65619 56.1349 0.652408 56.2068 0.6688C56.2787 0.685191 56.3446 0.721116 56.3974 0.772613C56.4535 0.824798 56.4964 0.889615 56.5225 0.961688C56.5486 1.03376 56.5572 1.11102 56.5474 1.18705V1.41927C56.5009 1.58571 56.4663 1.75525 56.4438 1.9266C56.4181 2.11843 56.4062 2.31185 56.4081 2.50538V2.96625C56.4081 3.05914 56.4152 3.25207 56.4295 3.54504C56.4295 3.838 56.4545 4.00591 56.4545 4.05236C56.5988 6.16058 56.6369 8.27471 56.5689 10.3868C56.5546 10.6464 56.5546 11.0394 56.5689 11.5658C56.5939 12.0874 56.6046 12.3803 56.6046 12.4446C56.6046 12.7376 56.6046 13.42 56.626 14.4989C56.6475 15.5779 56.6582 16.4103 56.6725 16.9998C56.6725 17.0927 56.7034 17.8704 56.7654 19.3328C56.7871 19.5023 56.7991 19.6729 56.8011 19.8437C56.8011 20.0819 56.8011 20.2355 56.8011 20.3046H57.2191C59.3461 20.3498 60.5012 20.3808 60.6846 20.3975C60.8061 20.3975 61.3634 20.4439 62.3495 20.5368C62.7046 20.5962 63.0431 20.7301 63.3427 20.9298L63.3642 20.9763C63.3124 21.2806 63.298 21.5902 63.3213 21.898C63.3491 22.2096 63.3176 22.5236 63.2284 22.8233C63.1498 23.0699 63.1105 23.2021 63.1105 23.2163C63.1055 23.2791 63.0947 23.3413 63.0783 23.4021C63.0587 23.466 63.0467 23.5319 63.0426 23.5986C63.0454 23.6645 63.0526 23.7302 63.064 23.7951C63.0825 23.8397 63.0825 23.8898 63.064 23.9345C62.9514 24.2874 62.8865 24.6539 62.8711 25.0241Z" fill="black"/>
<path d="M79.8389 27.7778L79.7674 27.9385C78.5497 27.6973 77.311 27.5776 76.0697 27.5813C75.7029 27.5956 74.556 27.5801 72.6291 27.5348C72.2719 27.5348 71.4109 27.5598 70.0389 27.6063C70.016 27.539 69.9885 27.4734 69.9568 27.4098C69.9231 27.3283 69.8812 27.2505 69.8317 27.1775C69.7893 27.1131 69.7388 27.0543 69.6817 27.0025C69.6432 26.9668 69.5999 26.9368 69.553 26.9132C69.4923 26.4201 69.4602 26.1557 69.4602 26.1272C69.4766 25.8893 69.4766 25.6505 69.4602 25.4126C69.4387 25.0554 69.4101 24.6981 69.378 24.3158C69.3458 23.9335 69.3315 23.7442 69.3315 23.712C69.2422 21.7113 69.1779 20.393 69.1493 19.7606C69.1493 19.3283 69.1493 18.7138 69.1493 17.9135C69.1493 17.1132 69.1493 16.6023 69.1493 16.388C69.1493 16.2343 69.1493 15.9807 69.1279 15.6341C69.1065 15.2876 69.1029 15.0232 69.1029 14.8374C69.1029 14.4802 69.1029 13.8942 69.1029 13.1154C69.1029 12.3365 69.1029 11.7399 69.1029 11.329C69.1029 10.7288 69.0791 9.92733 69.0314 8.9246C69.0314 8.73881 68.9862 7.73012 68.8957 5.89851V5.6913C68.85 5.63043 68.825 5.55659 68.8242 5.48051C68.8248 5.39182 68.8332 5.30335 68.8492 5.21613C68.861 5.14282 68.8682 5.06883 68.8707 4.99462C68.8707 4.93388 68.8707 4.85529 68.8707 4.75525C68.8707 4.65521 68.8707 4.56232 68.8957 4.47658C68.9207 4.39083 68.8957 4.31223 68.8957 4.23363C68.922 3.81154 69.0442 3.401 69.2529 3.0332H69.3673C69.6138 3.07965 70.0282 3.12252 70.6034 3.16897C71.0455 3.19284 71.4838 3.2635 71.911 3.37976C72.2477 3.48209 72.6035 3.50532 72.9507 3.44764C73.0186 3.42731 73.0907 3.42588 73.1593 3.44351C73.2279 3.46114 73.2904 3.49715 73.3401 3.54767C73.3975 3.59892 73.4412 3.66362 73.4674 3.73596C73.4936 3.8083 73.5014 3.88601 73.4902 3.96211V4.19433C73.4457 4.36126 73.4111 4.53066 73.3866 4.70166C73.364 4.89374 73.3532 5.08703 73.3544 5.28044V5.74131C73.3544 5.8342 73.3616 6.02713 73.3758 6.32009C73.3758 6.61305 73.3973 6.78454 73.3973 6.83099C73.5423 8.93797 73.5816 11.0509 73.5152 13.1618C73.4973 13.4226 73.5152 13.8156 73.5152 14.3408C73.5152 14.866 73.5509 15.159 73.5509 15.2197C73.5509 15.5127 73.558 16.1986 73.5723 17.2776C73.5723 18.3494 73.6045 19.1854 73.6188 19.7785C73.6188 19.8714 73.6497 20.6502 73.7117 22.115C73.7117 22.2222 73.7367 22.3901 73.7474 22.6223C73.7581 22.8546 73.7474 23.0082 73.7474 23.0832H74.1618C76.3055 23.1297 77.4451 23.1618 77.6309 23.1761C77.7524 23.1761 78.3062 23.2226 79.2958 23.3155C79.6505 23.3764 79.9887 23.5102 80.289 23.7084L80.3105 23.7549C80.2571 24.0603 80.2415 24.371 80.264 24.6802C80.2938 24.9906 80.2623 25.3038 80.1711 25.602C80.0961 25.8485 80.0568 25.9807 80.0568 25.995C80.0518 26.058 80.0398 26.1203 80.0211 26.1808C80.0039 26.245 79.9931 26.3109 79.9889 26.3773C79.9917 26.4432 79.9989 26.5088 80.0104 26.5738C80.0251 26.619 80.0251 26.6678 80.0104 26.7131C79.9057 27.0587 79.848 27.4168 79.8389 27.7778Z" fill="black"/>
<path d="M87.0552 24.5123C87.0969 24.9022 87.0568 25.2964 86.9373 25.6699L86.823 25.7378C86.5369 25.7214 86.2504 25.7615 85.9798 25.8557C85.7011 25.9519 85.4058 25.9908 85.1116 25.97C84.9812 25.9552 84.8499 25.9481 84.7186 25.9486H84.5114C84.4228 25.9469 84.3342 25.9541 84.247 25.97C84.1716 25.987 84.0976 26.0097 84.0255 26.0379C83.9128 26.0869 83.7867 26.0958 83.6683 26.0629C83.4533 26.0294 83.2339 26.0367 83.0216 26.0843C82.9155 26.1117 82.8055 26.1201 82.6965 26.1093C82.65 25.5377 82.6286 25.2376 82.6286 25.2054C82.4881 23.6977 82.4107 22.8975 82.3964 22.8046C82.3964 22.3866 82.3607 21.7149 82.3392 20.7824C82.3178 19.8499 82.2713 16.9096 82.2463 16.4094C82.1725 15.0709 82.126 13.3381 82.107 11.2111C82.107 10.7348 82.0998 9.92974 82.0856 8.796C82.0856 7.66345 82.0605 6.79528 82.0605 6.19507C82.0605 6.05573 82.0605 5.90925 82.0605 5.75562C82.0605 5.602 82.0605 5.44123 82.082 5.26974C82.1034 5.09825 82.082 4.95534 82.082 4.83029V2.24366C82.1285 1.84367 82.1285 1.43964 82.082 1.03965C82.0543 0.915337 82.0639 0.785619 82.1097 0.666764C82.1555 0.547909 82.2353 0.445212 82.3392 0.371559H82.4285C82.9317 0.387511 83.4353 0.356414 83.9326 0.278671L84.3614 0.232224L84.8687 0.185777C85.0437 0.185777 85.1867 0.153626 85.2974 0.139335C85.4082 0.125044 85.4832 0.103607 85.6297 0.0821707C85.7252 0.0635734 85.8219 0.0516334 85.9191 0.0464415L86.3121 0C86.4978 0.325116 86.5907 0.493033 86.5907 0.507323C86.6526 0.740127 86.6756 0.98157 86.6586 1.22186C86.6134 2.11504 86.5907 3.21662 86.5907 4.52662C86.605 5.01965 86.605 5.72466 86.5907 6.64166C86.5657 7.55627 86.555 8.19221 86.555 8.54591C86.555 10.0703 86.5621 11.3493 86.5764 12.383C86.5931 12.5688 86.6479 13.9788 86.7408 16.6131C86.8337 19.0175 86.8873 22.5509 86.9016 22.7688C86.948 23.3583 86.9945 23.9443 87.0552 24.5123Z" fill="black"/>
<path d="M88.6822 5.05856C88.6061 4.72231 88.6147 4.37245 88.7072 4.04034L89.1216 3.99389C89.2206 3.96982 89.3208 3.95074 89.4217 3.93673C89.5789 3.91529 89.6933 3.89385 89.779 3.87956L90.4292 3.81169C90.7043 3.77953 90.9115 3.74737 91.0509 3.71879C91.1295 3.71879 91.2402 3.71879 91.3867 3.71879C91.5332 3.71879 91.6618 3.70093 91.769 3.68664C91.8731 3.67089 91.9743 3.63958 92.0691 3.59375L92.5085 3.61519C92.5836 4.07964 92.6229 4.32973 92.6229 4.40118C92.7944 5.40511 92.9158 6.15895 92.9801 6.66627C93.2183 8.07154 93.3374 8.80394 93.3374 8.86349C93.3374 8.92423 93.5089 9.70307 93.8019 11.1965C94.0948 12.6899 94.2556 13.5223 94.2842 13.6009C94.3151 13.801 94.5855 14.98 95.0952 17.1379L95.1631 17.438L95.256 17.2522C95.3488 16.6853 95.6799 15.2134 96.2492 12.8363C96.2813 12.7149 96.3313 12.4791 96.3992 12.1682C96.4671 11.8574 96.5207 11.5966 96.5493 11.4287C96.5779 11.2608 96.7029 10.9249 96.8279 10.5141C96.953 10.1032 97.0352 9.79954 97.0816 9.60304C97.3198 8.65032 97.5282 7.8024 97.7068 7.05927C97.8283 6.53766 97.9664 5.84455 98.1213 4.97996C98.1383 4.86164 98.1467 4.74223 98.1463 4.62269V4.31901C98.1749 4.01176 98.3213 3.89028 98.5857 3.96174C98.6143 4.00818 98.8144 4.0189 99.1859 3.99746L99.7861 3.96174H100.201L100.686 3.98674H101.126C101.288 3.99052 101.451 3.98216 101.612 3.96174C101.671 3.94424 101.734 3.93934 101.795 3.94734C101.857 3.95533 101.916 3.97605 101.969 4.00818C102.099 4.2239 102.167 4.47105 102.166 4.72272C102.177 4.96236 102.158 5.20248 102.108 5.43726C102.108 5.51586 102.062 5.65163 102.016 5.8517C101.756 7.13072 101.609 7.86313 101.576 8.04891C101.362 8.98734 100.969 10.4891 100.397 12.5541C100.336 12.7542 100.279 12.9685 100.226 13.19C100.172 13.4115 100.115 13.6616 100.061 13.9296C100.008 14.1975 99.9576 14.419 99.9112 14.5905C99.8898 14.7271 99.8587 14.862 99.8183 14.9942C99.7754 15.155 99.7326 15.3122 99.6933 15.4658C99.654 15.6195 99.6182 15.7588 99.5896 15.8839C99.311 17.195 99.1109 18.2097 98.9894 18.9349C98.6488 20.7213 98.3166 22.5077 97.9926 24.294C97.9641 24.4941 97.9248 24.7763 97.8783 25.1479C97.8319 25.5194 97.7997 25.7731 97.7854 25.9089C97.7324 26.3142 97.656 26.7163 97.5568 27.1129C97.5389 27.145 97.4317 27.3808 97.2317 27.8274L97.1173 27.8738C96.9629 27.8088 96.7987 27.7701 96.6314 27.7595C96.4613 27.7491 96.2907 27.7491 96.1206 27.7595C95.9516 27.7699 95.7822 27.7699 95.6132 27.7595L94.8737 27.781C94.7961 27.789 94.7196 27.8046 94.645 27.8274L94.3199 27.8953C94.0704 27.8947 93.8219 27.9259 93.5804 27.9882H93.3731C93.3731 27.9882 93.3731 27.9131 93.3481 27.8024C93.3383 27.7169 93.3228 27.6322 93.3017 27.5487C93.2731 27.3665 93.2267 27.1021 93.1624 26.7627C93.098 26.4233 93.0445 26.1161 92.9909 25.841C92.9373 25.5659 92.8944 25.3015 92.8622 25.055C92.7872 24.637 92.7015 24.2047 92.6086 23.7581C92.5157 23.3115 92.4157 22.8578 92.3085 22.3969C92.2013 21.936 92.1013 21.518 92.0084 21.1464L91.6725 19.8067C91.5439 19.2851 91.4367 18.8599 91.3617 18.5348C90.9759 16.9199 90.6603 15.5492 90.4149 14.4226C90.2435 13.6509 90.0577 12.6363 89.8112 11.393C89.7218 10.9178 89.6289 10.4105 89.536 9.86742C89.4432 9.32437 89.3431 8.74559 89.2359 8.11322C89.1288 7.48085 89.0359 6.97353 88.9573 6.58767C88.8525 5.90886 88.7608 5.39915 88.6822 5.05856Z" fill="black"/>
<path d="M114.516 15.383C114.588 15.3949 114.658 15.4178 114.723 15.4509C114.807 15.7434 114.845 16.047 114.837 16.3512C114.834 16.571 114.803 16.7895 114.744 17.0014C114.673 17.2254 114.658 17.4635 114.701 17.6945C114.701 17.6945 114.701 17.7374 114.701 17.8196C114.69 17.869 114.681 17.9191 114.676 17.9696V18.6627C114.688 18.7099 114.69 18.759 114.682 18.8069C114.674 18.8548 114.656 18.9006 114.63 18.9414C114.548 18.9974 114.449 19.0215 114.351 19.0093H114.051H113.751C112.997 19.0093 112.458 18.9843 112.133 18.9843C111.886 18.9843 111.482 18.9843 110.921 19.0093C110.361 19.0343 109.932 19.0307 109.639 19.0307H109.257H108.806C108.675 19.0279 108.543 19.016 108.413 18.995L108.253 19.02C108.188 20.4682 108.195 22.2867 108.274 24.4755L108.388 24.5184H111.786L112.944 24.497C113.53 24.497 113.983 24.4755 114.308 24.4755C114.337 24.4755 114.623 24.5184 115.162 24.6113L115.23 24.7506C115.206 25.0176 115.226 25.2866 115.287 25.5473C115.356 25.8159 115.368 26.0956 115.323 26.3691C115.298 26.506 115.283 26.6445 115.277 26.7835C115.277 26.8478 115.277 27.0479 115.323 27.3873C115.321 27.4063 115.321 27.4255 115.323 27.4445C115.327 27.4633 115.327 27.4828 115.323 27.5016C115.264 27.8557 115.248 28.2156 115.277 28.5734L115.23 28.7128H114.351C114.073 28.7128 113.572 28.7128 112.847 28.7485C112.122 28.7842 111.568 28.7806 111.186 28.7806H105.109C104.807 28.776 104.509 28.7141 104.23 28.5984V27.8124C104.196 27.7854 104.157 27.7648 104.115 27.7517C104.071 27.7345 104.024 27.7237 103.976 27.7196C103.944 27.4409 103.93 27.273 103.93 27.2087C103.93 27.1443 103.93 26.9872 103.976 26.7263C104.023 26.4655 104.023 26.3012 104.023 26.2405C104.023 26.0404 104.044 25.8832 104.044 25.7546C104.044 25.7081 104.012 25.2973 103.987 24.5184C103.962 23.7396 103.948 23.1536 103.94 22.7606C103.933 22.3676 103.94 22.0461 103.94 21.8353C103.94 21.6245 103.94 21.3065 103.94 20.9136C103.94 20.5206 103.962 20.199 103.976 19.9989C103.976 19.8775 103.976 19.4559 103.976 18.7378C103.976 18.0197 103.976 17.6124 103.976 17.5016C103.99 16.8419 104.021 15.9022 104.069 14.6828C104.115 13.468 104.144 12.6106 104.162 12.1176C104.162 11.7031 104.183 11.0457 104.183 10.1311V8.45553C104.183 7.72313 104.183 7.18722 104.208 6.84781C104.223 6.64938 104.164 6.45251 104.044 6.29404C104 6.22523 103.983 6.14231 103.998 6.06182C104.015 6.00108 104.083 5.76171 104.208 5.34727C105.015 5.05638 105.855 4.8691 106.709 4.78993C107.976 4.63214 109.249 4.54032 110.525 4.51484H110.675L110.836 4.48983H110.986C112.216 4.36641 113.455 4.37359 114.684 4.51126C114.743 4.51232 114.801 4.52072 114.859 4.53627L115.009 4.58272L115.169 4.63988L115.33 4.69705C115.365 4.6979 115.399 4.70746 115.43 4.72489C115.46 4.74231 115.486 4.76703 115.504 4.79682C115.523 4.82661 115.533 4.86053 115.536 4.89551C115.538 4.93049 115.531 4.96542 115.516 4.99715C115.482 5.18016 115.482 5.36791 115.516 5.55092C115.578 5.95869 115.562 6.37443 115.47 6.77636C115.47 6.86925 115.437 7.06932 115.423 7.37657V7.76957C115.423 7.84817 115.369 8.18043 115.309 8.76636H114.616C113.104 8.70205 112.258 8.68061 112.072 8.6949C112.011 8.6949 111.736 8.71634 111.25 8.75207C110.764 8.78779 110.4 8.8128 110.153 8.8128C109.796 8.84138 109.292 8.87354 108.674 8.90212L108.488 8.94856C108.412 11.5066 108.359 13.4252 108.328 14.7042C108.357 14.7171 108.389 14.7256 108.421 14.7292C109.575 14.7756 110.207 14.7899 110.339 14.7756H113.665C114.014 14.7624 114.357 14.8683 114.637 15.0758C114.73 15.152 114.78 15.2056 114.787 15.2365C114.784 15.3239 114.764 15.4098 114.73 15.4902C114.709 15.3115 114.637 15.2901 114.516 15.383Z" fill="black"/>
</svg>
