<svg width="64" height="57" viewBox="0 0 64 57" fill="none" xmlns="http://www.w3.org/2000/svg">
<path d="M11.1288 29.2059L11.0576 29.3696C9.82864 29.1262 8.57832 29.007 7.3255 29.0138C6.95074 29.028 5.7909 29.0126 3.84597 28.9675C3.49019 28.9675 2.61498 28.9889 1.231 29.0387C1.20825 28.9705 1.18091 28.9039 1.14917 28.8395C1.11226 28.7582 1.06945 28.6797 1.02108 28.6046C0.978664 28.5395 0.927147 28.4808 0.868099 28.4303C0.829661 28.394 0.786595 28.3629 0.740019 28.3378C0.679536 27.8397 0.647518 27.5764 0.647518 27.5444C0.664591 27.2992 0.664591 27.0532 0.647518 26.808C0.622614 26.4522 0.59415 26.0715 0.565688 25.6979C0.537225 25.3244 0.519437 25.1251 0.519437 25.0931C0.423377 23.0687 0.362895 21.7381 0.330875 21.1013C0.330875 20.6625 0.330875 20.0399 0.330875 19.2334C0.330875 18.4222 0.330875 17.9099 0.330875 17.6929C0.330875 17.5364 0.330875 17.2838 0.30597 16.9351C0.281066 16.5864 0.281066 16.316 0.281066 16.1275C0.281066 15.7717 0.281066 15.174 0.281066 14.3877C0.281066 13.6014 0.281066 13.0002 0.281066 12.5804C0.281066 11.972 0.25616 6.96616 0.209908 5.95218C0.209908 5.76718 0.163657 4.74847 0.0711548 2.89604V2.68613C0.0256904 2.62552 0.000762773 2.55198 0 2.47622C0.000560295 2.38555 0.0088922 2.29508 0.0249044 2.20583C0.0366626 2.13283 0.0437915 2.05915 0.0462503 1.98525C0.0421021 1.90347 0.0421021 1.82154 0.0462503 1.73976C0.0462503 1.64014 0.0462495 1.54764 0.0675962 1.45869C0.088943 1.36975 0.0675962 1.29148 0.0675962 1.21676C0.0932081 0.789587 0.214817 0.373684 0.423375 0H0.540783C0.789829 0.0462513 1.20609 0.0960582 1.78957 0.14231C2.2345 0.166011 2.67571 0.236368 3.10595 0.352221C3.45151 0.458104 3.81713 0.48126 4.17329 0.41982C4.24366 0.396117 4.31926 0.392551 4.39156 0.409524C4.46385 0.426497 4.52996 0.463333 4.58244 0.515879C4.63869 0.569111 4.68155 0.634895 4.70752 0.707859C4.73349 0.780822 4.74183 0.858895 4.73186 0.935698V1.16696C4.68587 1.33639 4.6514 1.50874 4.62869 1.68283C4.60299 1.87624 4.5911 2.07122 4.59311 2.26631V2.73238C4.59311 2.82489 4.59311 3.02057 4.61445 3.31586C4.6358 3.61116 4.63936 3.78193 4.63936 3.82818C4.7959 6.6922 4.83504 13.0251 4.75677 14.4233C4.73603 14.8203 4.73603 15.2181 4.75677 15.6151C4.78167 16.1453 4.79234 16.4406 4.79234 16.501C4.79234 16.7963 4.79235 17.4901 4.81369 18.5788C4.83504 19.6675 4.84571 20.5107 4.8635 21.1013C4.8635 21.1938 4.89196 21.98 4.956 23.4565C4.956 23.5668 4.98091 23.7376 4.99158 23.9724C5.00226 24.2072 4.99158 24.3602 4.99158 24.4385H5.4114C7.56031 24.4835 8.72726 24.5144 8.91227 24.531C9.03679 24.531 9.59892 24.5772 10.5951 24.6733C10.9533 24.734 11.2949 24.8685 11.5984 25.0682L11.6197 25.1145C11.5666 25.4233 11.5511 25.7375 11.5735 26.0502C11.605 26.3639 11.5736 26.6808 11.481 26.9823C11.4027 27.2313 11.3636 27.363 11.3636 27.3808C11.3586 27.4436 11.3467 27.5056 11.328 27.5658C11.3102 27.631 11.2983 27.6977 11.2924 27.765C11.2968 27.8318 11.3052 27.8984 11.3173 27.9642C11.332 28.0093 11.332 28.0579 11.3173 28.103C11.205 28.4604 11.1415 28.8314 11.1288 29.2059V29.2059Z" fill="#068E81"/>
<path d="M12.1692 16.5033H12.1905V11.718C12.1879 10.8928 12.2823 10.07 12.4716 9.26673C12.6401 8.54778 12.8908 7.85061 13.2187 7.18898C13.5104 6.60424 13.8686 6.05508 14.2861 5.5524C14.3643 5.45989 14.4462 5.36739 14.5316 5.27489C14.6169 5.17883 14.7166 5.07921 14.834 4.96892C14.9514 4.85862 15.0403 4.7768 15.1044 4.71276C15.1336 4.68 15.161 4.64555 15.1862 4.60958C15.2097 4.57218 15.2359 4.53651 15.2645 4.50285C15.2989 4.46648 15.3385 4.43531 15.3819 4.41034L16.5737 3.69878C16.746 3.62395 16.9262 3.56904 17.111 3.53513C17.6065 3.38661 18.1246 3.32757 18.6408 3.3608H18.9966C19.1215 3.35784 19.2464 3.36498 19.3702 3.38214C20.237 3.50434 21.0665 3.81525 21.8001 4.29294C21.8464 4.33919 22.0776 4.54198 22.5117 4.90132C23.0374 5.45938 23.4291 6.12975 23.6573 6.86166C23.9275 7.60632 24.1381 8.37128 24.287 9.14932C24.3333 9.4126 24.3902 10.0281 24.4507 10.9923C24.4507 11.2733 24.4507 11.8212 24.4507 12.6395C24.4507 13.4578 24.408 13.9203 24.3902 14.0271C24.2977 14.7742 24.2443 15.2723 24.2265 15.5213C24.1981 16.3467 24.1281 17.2338 24.0166 18.1826C24.0166 18.2751 23.9384 18.9475 23.8316 20.1892C23.7716 21.4838 23.5675 22.7678 23.2233 24.0173C23.177 24.1454 23.1236 24.3233 23.0596 24.5546L22.9208 25.0918C22.8266 25.3703 22.7174 25.6434 22.5935 25.9101L22.4654 26.1449C22.4121 26.2374 22.3694 26.3157 22.3374 26.3762C22.3053 26.4366 22.2698 26.5185 22.2306 26.611C22.1968 26.6938 22.1706 26.7795 22.1524 26.8671L22.0812 26.9383C21.6151 27.5431 21.3696 27.8704 21.3341 27.9167C20.8091 28.4559 20.1588 28.8567 19.4413 29.0836C18.8612 29.2725 18.2547 29.3674 17.6446 29.3647C16.9058 29.3852 16.1731 29.2252 15.51 28.8986C15.2537 28.7645 15.0147 28.5996 14.7984 28.4076L14.6347 28.2902L14.4604 28.1622C14.4035 28.1226 14.3489 28.0798 14.2967 28.0341C14.2415 27.9906 14.1976 27.9345 14.1687 27.8704C14.0336 27.8205 13.9119 27.7401 13.8129 27.6356C13.6998 27.5049 13.5986 27.3644 13.5105 27.2158C13.3931 27.0308 13.329 26.9205 13.3112 26.892C13.157 26.7093 13.0748 26.4765 13.08 26.2374C13.0838 26.2174 13.0838 26.1969 13.08 26.1769C13.08 26.1556 13.08 26.1271 13.0586 26.0951C13.0527 26.0699 13.0404 26.0467 13.0231 26.0275C12.729 24.9673 12.5736 24.3909 12.557 24.2984C12.441 23.6106 12.3626 22.917 12.3222 22.2207C12.2913 21.4925 12.2451 20.0611 12.1834 17.9264L12.1692 16.5033ZM16.1824 16.4784V18.4387H16.1504C16.2571 20.8224 16.3211 22.1815 16.3354 22.5266C16.3673 23.1966 16.5016 23.8577 16.7338 24.487C16.8119 24.7435 16.9657 24.9704 17.175 25.138C17.3591 25.278 17.5884 25.3452 17.819 25.3266C17.9311 25.3227 18.0408 25.2934 18.14 25.241C18.2392 25.1887 18.3253 25.1145 18.3918 25.0242C18.6465 24.7156 18.8506 24.3686 18.9966 23.996C19.2482 23.3122 19.4433 22.609 19.5801 21.8933C19.6263 21.6763 19.7224 20.8687 19.8611 19.4669C19.8611 19.4207 19.9216 18.7056 20.0497 17.3322C20.1232 16.4926 20.1695 16.0657 20.1885 16.0514C20.1885 15.7704 20.2205 15.4715 20.2347 15.1513C20.2489 14.8311 20.2703 14.4789 20.2916 14.084C20.313 13.6891 20.3343 13.4009 20.3521 13.1981C20.3521 13.0914 20.3521 12.9455 20.3735 12.7676C20.3948 12.5897 20.4019 12.4118 20.409 12.2659C20.4162 12.1201 20.4304 11.9707 20.4446 11.8426C20.4797 10.898 20.3693 9.95363 20.1173 9.04259C20.0115 8.64724 19.8636 8.26437 19.6761 7.90054C19.6451 7.83005 19.6001 7.76659 19.5438 7.714C19.4876 7.6614 19.4212 7.62077 19.3488 7.59457C19.185 7.51697 19.0115 7.46192 18.8329 7.43091C18.6969 7.38889 18.5533 7.37762 18.4124 7.39792C18.2714 7.41823 18.1368 7.4696 18.0182 7.54832C17.6029 7.83943 17.2527 8.21383 16.99 8.64767C16.6285 9.22914 16.3979 9.88227 16.314 10.5618C16.25 11.0741 16.2037 11.6967 16.1717 12.4261C16.1475 12.7647 16.1404 13.1043 16.1504 13.4436V15.347C16.1504 15.4715 16.1504 15.6601 16.1504 15.9162C16.1504 16.1724 16.1824 16.3539 16.1824 16.4784Z" fill="#068E81"/>
<path d="M33.2455 18.956C33.2455 18.924 33.3202 18.6928 33.4305 18.2445L33.4767 18.2231C33.7155 18.2346 33.9548 18.2142 34.1883 18.1627C34.3807 18.1223 34.5756 18.0949 34.7718 18.0808C34.991 18.0715 35.2106 18.0871 35.4264 18.1271C35.6593 18.1911 35.9051 18.1911 36.138 18.1271C36.2072 18.1125 36.2787 18.1125 36.3479 18.1271C36.3941 18.1271 36.4759 18.1271 36.5934 18.1271H36.8851C36.9656 18.1273 37.0454 18.1115 37.1199 18.0808C37.1199 18.0808 37.2515 18.1022 37.4757 18.1484C37.4738 18.2153 37.4667 18.2819 37.4543 18.3477C37.4429 18.4172 37.4429 18.4881 37.4543 18.5576C37.4616 18.6095 37.4735 18.6607 37.4899 18.7106C37.5196 18.7857 37.5434 18.863 37.5611 18.9418C37.5739 19.0075 37.5811 19.0741 37.5824 19.1411C37.5803 19.2232 37.5732 19.3052 37.5611 19.3865C37.5484 19.4559 37.5401 19.526 37.5362 19.5964C37.5362 19.6605 37.5362 19.7921 37.5362 19.9949C37.5362 20.1977 37.5148 20.3507 37.5006 20.4859C37.5006 20.5464 37.465 20.6211 37.4437 20.7065C37.4223 20.7919 37.3939 20.8844 37.3618 20.9875C37.3298 21.0907 37.3049 21.169 37.2907 21.233C37.2764 21.2971 37.2444 21.4678 37.1982 21.6635C37.1519 21.8592 37.1128 22.0193 37.0808 22.094C36.917 22.8155 36.546 23.4733 36.0134 23.9868C35.7577 24.2165 35.4854 24.4269 35.1987 24.6165C35.0505 24.7194 34.8933 24.8087 34.7291 24.8833C34.5474 24.9701 34.3756 25.0763 34.2167 25.2C34.0734 25.2177 33.9366 25.2702 33.8183 25.353C33.7587 25.3972 33.6908 25.4291 33.6187 25.4468C33.5467 25.4645 33.4718 25.4677 33.3985 25.4561C33.3861 25.4551 33.3736 25.4568 33.3619 25.4611C33.3502 25.4654 33.3396 25.4722 33.3309 25.481C33.237 25.5411 33.1335 25.5844 33.0249 25.6091C32.8903 25.6278 32.7538 25.6278 32.6193 25.6091C32.4556 25.6091 32.3489 25.5842 32.3027 25.5842C31.9561 25.5968 31.6118 25.5247 31.2994 25.3743C31.2578 25.366 31.218 25.3503 31.1819 25.3281C31.1375 25.309 31.0947 25.2864 31.0539 25.2605C31.0181 25.2407 30.9772 25.232 30.9365 25.2355C30.882 25.2354 30.8287 25.2515 30.7835 25.2818C30.7756 25.2888 30.7655 25.2927 30.755 25.2927C30.7445 25.2927 30.7344 25.2888 30.7265 25.2818L30.6554 25.2498C30.6397 25.2354 30.6197 25.2266 30.5985 25.2249C30.5592 25.1955 30.5161 25.1715 30.4704 25.1537C30.4263 25.1325 30.3796 25.117 30.3316 25.1075C30.2802 25.1129 30.2291 25.1212 30.1787 25.1324C30.1642 25.1393 30.1484 25.1429 30.1324 25.1429C30.1164 25.1429 30.1006 25.1393 30.0861 25.1324C29.9759 25.0541 29.83 24.9652 29.6521 24.862C29.4742 24.7588 29.2963 24.6663 29.1504 24.5702C29.0055 24.4884 28.8784 24.3783 28.7769 24.2465C28.3107 23.7104 27.8961 23.1315 27.5388 22.5174C27.2526 21.9523 27.0557 21.3462 26.9553 20.7207C26.9553 20.6424 26.8948 20.2226 26.8165 19.4577C26.5805 17.0615 26.4867 14.6534 26.5355 12.246C26.5355 11.7942 26.5746 11.1574 26.6066 10.332C26.6386 9.50655 26.6529 8.93019 26.6529 8.60287C26.6675 8.33149 26.6675 8.05952 26.6529 7.78814C26.6386 7.42998 26.6315 7.22719 26.6315 7.17975C26.6315 7.17975 26.6315 7.06234 26.6529 6.87734C26.6991 6.37925 26.724 6.1053 26.724 6.05905C26.7509 5.82 26.7901 5.5825 26.8414 5.34749C26.9802 4.77469 27.0798 4.37621 27.1439 4.15919C27.2565 3.82085 27.3969 3.49242 27.5637 3.17724C27.9045 2.51568 28.364 1.92235 28.9192 1.4268C29.3875 1.01665 29.9347 0.706687 30.5273 0.516009C31.0813 0.329633 31.652 0.197376 32.2315 0.121094C32.7634 0.121636 33.2943 0.168059 33.8183 0.259847C34.2026 0.336867 34.5732 0.471191 34.9176 0.658321C35.4398 0.912725 35.9009 1.27679 36.2696 1.72566C36.4577 1.93856 36.629 2.16576 36.7819 2.4052C37.1774 3.01608 37.4214 3.71255 37.4935 4.43669C37.5575 5.01306 37.6038 5.41509 37.6358 5.6499C37.6539 5.87678 37.6848 6.10246 37.7283 6.32588C37.7283 6.37213 37.7639 6.43617 37.7852 6.51445C37.8045 6.56712 37.8164 6.62218 37.8208 6.6781C37.8571 6.79383 37.8809 6.9131 37.8919 7.03388C37.8457 7.72054 37.8066 8.14747 37.7745 8.31825C37.7425 8.48902 37.618 8.88749 37.401 9.60261C37.3701 9.69511 37.2919 9.73425 37.1662 9.72002C36.8473 9.64772 36.524 9.59661 36.1984 9.56703L35.0884 9.44962C34.7652 9.4172 34.4452 9.3589 34.1314 9.27529C34.0138 9.25602 33.8947 9.24768 33.7756 9.25039C33.6993 9.27034 33.6191 9.26998 33.543 9.24934C33.4669 9.2287 33.3975 9.18851 33.3418 9.13275C33.286 9.07699 33.2458 9.00761 33.2252 8.93151C33.2045 8.8554 33.2042 8.77522 33.2241 8.69893C33.2378 8.5325 33.2688 8.36795 33.3166 8.20796C33.4582 7.76321 33.49 7.29078 33.4091 6.83109C33.3344 6.43973 33.2633 5.88827 33.1992 5.17316C33.2081 5.06859 33.1902 4.9635 33.1472 4.86775C33.1043 4.77199 33.0377 4.68873 32.9538 4.62576C32.8698 4.5628 32.7713 4.52221 32.6673 4.50781C32.5634 4.49341 32.4575 4.50566 32.3596 4.54343C32.1056 4.58432 31.8683 4.69572 31.6745 4.86492C31.4808 5.03412 31.3385 5.25434 31.2638 5.50048C31.0286 6.23961 30.918 7.01271 30.9365 7.78814C30.9365 8.26844 30.9365 8.82345 30.8902 9.44251C30.7977 12.0753 30.7823 14.0676 30.844 15.4196V15.8999C30.844 16.092 30.844 16.2806 30.844 16.4585C30.844 16.6364 30.844 16.7965 30.844 16.9388C30.8748 17.3254 30.9839 18.3524 31.1713 20.0198C31.2154 20.359 31.3618 20.6767 31.5911 20.9306C31.6602 20.9908 31.7398 21.0378 31.8259 21.0694C31.9091 21.095 31.9951 21.1105 32.0821 21.1156C32.5802 21.2259 32.8755 21.0445 32.968 20.5784C33 20.3756 33.0462 20.0874 33.1103 19.7139C33.1743 19.3403 33.2241 19.0948 33.2455 18.956Z" fill="#068E81"/>
<path d="M42.1849 28.3554C42.1712 28.7272 42.109 29.0955 41.9998 29.4512L41.9287 29.4974C41.7579 29.4974 41.3844 29.4654 40.808 29.4405C40.3629 29.4283 39.9187 29.3927 39.4774 29.3338C39.0536 29.2573 38.6237 29.2192 38.193 29.2199C38.1213 29.2227 38.0499 29.2106 37.9831 29.1844C37.9357 29.1589 37.8991 29.1172 37.8799 29.0669C37.8507 28.9812 37.8386 28.8905 37.8443 28.8001L37.7376 28.7503L37.6095 28.704C37.5689 28.6926 37.5296 28.6772 37.4921 28.6578C37.5882 28.0814 37.6416 27.779 37.6558 27.747C37.8906 26.6583 38.0365 26.0215 38.1005 25.8329C38.1646 25.6443 38.5132 24.271 39.1501 21.8411C39.4454 20.7524 39.7122 19.7633 39.9434 18.8774C40.4273 17.0736 40.7084 16.0312 40.7866 15.7501C40.9076 15.2758 41.1021 14.5903 41.3701 13.6937C41.6381 12.7972 41.8326 12.1283 41.9536 11.6871C42.4801 9.78964 42.7992 8.5373 42.9106 7.9301C42.9106 7.88385 42.964 7.43201 43.0743 6.57458C43.1519 6.50147 43.2255 6.42428 43.2949 6.34333L43.423 6.03736H43.8962C43.9086 5.9424 43.9567 5.85574 44.0307 5.79495C44.1047 5.73416 44.1991 5.70381 44.2946 5.71004C44.4334 5.71004 44.6504 5.71004 44.9457 5.66379L45.6252 5.59619C45.8144 5.60512 46.0019 5.63617 46.1838 5.68869L46.3475 5.8737C46.4194 5.869 46.4902 5.85341 46.5574 5.82745L46.7673 5.75985C47.0015 5.93001 47.1809 6.16499 47.2832 6.43583C47.5344 7.17045 47.7108 7.92854 47.8097 8.69859C47.9378 9.59493 48.116 10.4834 48.3434 11.3598C48.3742 11.4832 48.5308 12.3003 48.813 13.8111L48.8344 13.9534C48.8664 14.0922 48.9838 14.5796 49.1901 15.4121C49.3965 16.2447 49.5459 16.878 49.6562 17.312L50.012 18.8205C50.1721 19.4965 50.2931 20.0124 50.3678 20.3717C50.4318 20.6207 50.5243 21.0014 50.6488 21.5138L50.9299 22.6807C50.9762 22.855 51.0224 23.0365 51.0687 23.2322C51.1149 23.4278 51.1576 23.6093 51.1967 23.7801C51.2359 23.9508 51.2786 24.1358 51.3248 24.3031C51.3711 24.4703 51.4138 24.6588 51.4529 24.8652C51.492 25.0715 51.5347 25.2423 51.581 25.4131C51.6272 25.5839 51.7162 25.9112 51.8407 26.395C51.9652 26.8789 52.0577 27.2489 52.1182 27.5157C52.2143 27.9178 52.289 28.3554 52.353 28.8215C52.3417 29.002 52.3179 29.1815 52.2819 29.3587C52.2499 29.4974 52.1502 29.5544 51.9795 29.5223C51.8236 29.5228 51.6705 29.5632 51.5347 29.6397C51.1444 29.8067 50.7247 29.8938 50.3002 29.8959C50.0373 29.9025 49.7769 29.9493 49.5281 30.0347C49.4539 30.0662 49.374 30.082 49.2933 30.0809C48.9375 30.145 48.6245 30.1912 48.4074 30.2232C48.3606 30.2184 48.3142 30.2101 48.2687 30.1983C48.1572 29.7239 47.9746 28.9223 47.7208 27.7933C47.467 26.6642 47.2595 25.7855 47.0982 25.1569L42.8288 25.0182C42.6901 25.47 42.5976 25.7795 42.5513 25.9503V25.9752C42.4246 26.281 42.3419 26.6032 42.3058 26.9323C42.2809 27.1173 42.2667 27.2631 42.2596 27.3628C42.2525 27.4624 42.2382 27.6403 42.224 27.8893C42.2098 28.1384 42.1849 28.2913 42.1849 28.3554ZM43.9139 20.7453C44.0669 20.7453 44.3053 20.7453 44.6255 20.7808L45.3371 20.8271C45.4936 20.8271 45.7426 20.8271 46.0842 20.8271C45.9739 20.3895 45.8031 19.71 45.5719 18.7814C45.3406 17.8528 45.1663 17.1448 45.056 16.6467H45.0097C44.9172 16.9598 44.7998 17.3867 44.654 17.9311C44.5081 18.4754 44.38 18.977 44.2555 19.436C44.131 19.895 44.0207 20.3254 43.9139 20.7453Z" fill="#068E81"/>
<path d="M63.5022 25.1884L63.4311 25.352C62.2009 25.1085 60.9494 24.9893 59.6954 24.9963C59.3396 24.9963 58.162 24.9963 56.2194 24.9465C55.8613 24.9465 54.9896 24.9702 53.6044 25.0176C53.6044 24.9714 53.5617 24.9038 53.5226 24.8184C53.4865 24.7378 53.4437 24.6605 53.3945 24.5871C53.352 24.5221 53.3005 24.4634 53.2415 24.4128C53.203 24.3756 53.1599 24.3434 53.1135 24.3167C53.0494 23.8186 53.021 23.5554 53.021 23.5233C53.0393 23.2782 53.0393 23.032 53.021 22.7869C52.9996 22.4311 52.9712 22.054 52.9391 21.6804C52.9071 21.3068 52.8929 21.104 52.8929 21.072C52.8004 19.0512 52.7387 17.7206 52.7079 17.0802C52.7079 16.6461 52.7079 16.0235 52.7079 15.2123C52.7079 14.4047 52.7079 13.8924 52.7079 13.6718C52.7079 13.5188 52.7079 13.2627 52.6865 12.914C52.6652 12.5653 52.6616 12.2949 52.6616 12.1099C52.6616 11.7376 52.6616 11.1576 52.6616 10.3702C52.6616 9.58391 52.6616 8.97908 52.6616 8.55926C52.6616 7.95444 52.6367 7.13615 52.5905 6.13285C52.5905 5.94429 52.5442 4.92676 52.4517 3.07315V2.86324C52.4063 2.80263 52.3813 2.72909 52.3806 2.65333C52.3811 2.56383 52.3895 2.47455 52.4055 2.38649C52.4171 2.31347 52.4242 2.2398 52.4268 2.16591C52.4268 2.10187 52.4268 2.02004 52.4268 1.92042C52.4268 1.81725 52.4268 1.72475 52.4517 1.63936C52.4766 1.55397 52.4517 1.47214 52.4517 1.39387C52.4779 0.967909 52.5994 0.55328 52.8075 0.180664H52.9213C53.1585 0.228101 53.5748 0.274352 54.1701 0.319418C54.6163 0.342871 55.0587 0.413228 55.4901 0.529326C55.8353 0.636662 56.201 0.661042 56.5574 0.600484C56.6275 0.576746 56.7028 0.572821 56.775 0.589143C56.8472 0.605465 56.9135 0.641397 56.9666 0.692984C57.0237 0.745693 57.0674 0.811301 57.094 0.884332C57.1206 0.957362 57.1294 1.0357 57.1195 1.1128V1.34762C57.0738 1.51611 57.0381 1.68719 57.0128 1.85994C56.9902 2.05359 56.9795 2.24846 56.9808 2.44342V2.90949C56.9808 3.00674 56.9879 3.20242 57.0021 3.49653C57.0021 3.79182 57.027 3.9626 57.027 4.00885C57.1788 6.87405 57.2168 9.00873 57.1409 10.4129C57.1409 10.6761 57.1409 11.0746 57.1409 11.6012C57.1409 12.1277 57.1765 12.4266 57.1765 12.4906C57.1765 12.7859 57.1765 13.4761 57.1978 14.5684C57.2192 15.6606 57.2298 16.4967 57.2441 17.0873C57.2441 17.1798 57.2761 17.9661 57.3401 19.4461C57.3543 19.5576 57.365 19.7284 57.3721 19.9584C57.3721 20.1932 57.3721 20.3498 57.3721 20.4245H57.792C59.9266 20.4743 61.1043 20.5028 61.2928 20.5206C61.4174 20.5206 61.9759 20.5668 62.9721 20.6593C63.3307 20.7204 63.6726 20.8562 63.9754 21.0578L64.0003 21.104C63.9453 21.4115 63.9298 21.7248 63.9541 22.0362C63.9818 22.3511 63.9504 22.6685 63.8615 22.9719C63.7833 23.2091 63.7441 23.3407 63.7441 23.3668C63.739 23.4307 63.7271 23.4939 63.7086 23.5554C63.6893 23.619 63.6774 23.6847 63.673 23.751C63.6755 23.818 63.6839 23.8847 63.6979 23.9503C63.7126 23.9966 63.7126 24.0463 63.6979 24.0926C63.582 24.447 63.5162 24.8158 63.5022 25.1884V25.1884Z" fill="#068E81"/>
<path d="M23.3025 55.2185L23.2313 55.3821C22.0009 55.1405 20.7496 55.0213 19.4957 55.0263C19.1399 55.0263 17.9623 55.0263 16.0161 54.9801C15.6604 54.9801 14.7899 55.0038 13.4047 55.0512L13.3229 54.852C13.2868 54.7714 13.2439 54.6941 13.1948 54.6207C13.1503 54.5562 13.099 54.4966 13.0418 54.4429C13.0024 54.4077 12.9595 54.3767 12.9137 54.3503C12.8497 53.8523 12.8212 53.589 12.8212 53.557C12.8396 53.3118 12.8396 53.0656 12.8212 52.8205C12.7999 52.4647 12.7714 52.0876 12.7394 51.714C12.7074 51.3405 12.6932 51.1377 12.6932 51.1056C12.6007 49.0848 12.5366 47.7542 12.5082 47.1138C12.5082 46.6798 12.5082 46.0465 12.5082 45.246C12.5082 44.4455 12.5082 43.926 12.5082 43.7054C12.5082 43.5525 12.5082 43.2963 12.4868 42.9476C12.4655 42.599 12.4619 42.3286 12.4619 42.1436C12.4619 41.7688 12.4619 41.1889 12.4619 40.4038C12.4619 39.6175 12.4619 39.0127 12.4619 38.5929C12.4619 37.9881 12.437 37.1698 12.3907 36.1665C12.3907 35.9779 12.3445 34.9604 12.252 33.1068V32.8862C12.204 32.8269 12.1788 32.7525 12.1808 32.6763C12.1817 32.5869 12.1888 32.4978 12.2022 32.4094C12.2163 32.3367 12.2246 32.2629 12.2271 32.1889C12.2271 32.1248 12.2271 32.043 12.2271 31.9434C12.2271 31.8402 12.2449 31.7477 12.252 31.6623C12.2591 31.5769 12.252 31.4951 12.252 31.4168C12.2773 30.9907 12.3989 30.5759 12.6078 30.2036H12.7252C12.9742 30.2487 13.3905 30.2949 13.974 30.3424C14.4201 30.3661 14.8625 30.4365 15.2939 30.5523C15.6391 30.6596 16.0048 30.684 16.3612 30.6234C16.4313 30.5997 16.5066 30.5958 16.5788 30.6121C16.651 30.6284 16.7173 30.6643 16.7704 30.7159C16.8275 30.7686 16.8712 30.8342 16.8978 30.9073C16.9244 30.9803 16.9332 31.0586 16.9234 31.1358V31.3706C16.8776 31.5391 16.842 31.7101 16.8166 31.8829C16.7927 32.0765 16.7808 32.2713 16.7811 32.4664V32.9324C16.7811 33.0285 16.7811 33.2206 16.806 33.5195C16.8309 33.8183 16.8309 33.9855 16.8309 34.0318C16.985 36.897 17.023 39.0317 16.9447 40.4358C16.9447 40.6991 16.9447 41.0976 16.9447 41.6241C16.9447 42.1507 16.9767 42.4495 16.9767 42.5136C16.9767 42.8089 16.9767 43.4991 17.0016 44.5913C17.0265 45.6836 17.0337 46.5196 17.0479 47.1102C17.0479 47.2027 17.0787 47.989 17.1404 49.4691C17.162 49.639 17.1739 49.8101 17.176 49.9814C17.176 50.2162 17.176 50.3727 17.176 50.4475H17.5994C19.734 50.4973 20.9117 50.5257 21.1002 50.5435C21.2247 50.5435 21.7833 50.5898 22.7795 50.6823C23.1382 50.7434 23.48 50.8791 23.7828 51.0807L23.8077 51.127C23.7527 51.4345 23.7372 51.7477 23.7614 52.0591C23.7892 52.3741 23.7578 52.6914 23.6689 52.9948C23.5907 53.2439 23.5515 53.3755 23.5515 53.3897C23.5445 53.4534 23.5326 53.5165 23.516 53.5783C23.4967 53.642 23.4848 53.7076 23.4804 53.774C23.4829 53.841 23.4913 53.9077 23.5053 53.9732C23.52 54.0195 23.52 54.0692 23.5053 54.1155C23.3864 54.4719 23.3181 54.8431 23.3025 55.2185Z" fill="#068E81"/>
<path d="M30.5894 51.9283C30.6342 52.3222 30.5954 52.721 30.4755 53.0988L30.3581 53.1664C30.0685 53.1482 29.7782 53.1881 29.5042 53.2838C29.2236 53.3823 28.9257 53.4223 28.629 53.4012C28.498 53.3854 28.3661 53.3771 28.2341 53.3763H28.0242C27.9335 53.3757 27.8429 53.384 27.7538 53.4012C27.6782 53.4179 27.6043 53.4417 27.5332 53.4724C27.4149 53.5223 27.2829 53.5298 27.1597 53.4937C26.9418 53.4615 26.7198 53.4699 26.505 53.5187C26.3976 53.5419 26.2873 53.5491 26.1777 53.54C26.1315 52.9636 26.1101 52.6612 26.1101 52.6292C25.9678 51.1065 25.8895 50.2953 25.8753 50.2028C25.8753 49.783 25.8397 49.1034 25.8184 48.1606C25.797 47.2178 25.765 44.247 25.7365 43.7525C25.6583 42.3958 25.6108 40.6454 25.5942 38.5012C25.5942 38.0268 25.5871 37.2133 25.5729 36.0606C25.5586 34.9078 25.5503 34.0326 25.548 33.4349C25.548 33.2926 25.548 33.1467 25.548 32.9902C25.548 32.8337 25.5658 32.67 25.5729 32.4992C25.58 32.3284 25.5729 32.1826 25.5729 32.058V29.4431C25.6192 29.04 25.6192 28.6329 25.5729 28.2299C25.5442 28.104 25.5532 27.9724 25.5988 27.8516C25.6443 27.7307 25.7244 27.626 25.829 27.5503H25.9251C26.4321 27.5681 26.9396 27.5371 27.4407 27.4578L27.8748 27.4116L28.3871 27.3653L28.8176 27.3191C28.8959 27.3013 29.0097 27.2835 29.1734 27.2586C29.337 27.2337 29.4189 27.223 29.4651 27.223L29.8636 27.1768C30.0486 27.5041 30.1446 27.6749 30.1446 27.6926C30.2058 27.9246 30.2287 28.1649 30.2122 28.4042C30.1672 29.3079 30.1446 30.4215 30.1446 31.745C30.1589 32.2431 30.1589 32.9546 30.1446 33.8796C30.1233 34.8047 30.1126 35.4486 30.1126 35.8044C30.1126 37.3485 30.1197 38.6412 30.134 39.6824C30.1482 39.8674 30.2028 41.2905 30.2976 43.9518C30.3901 46.3817 30.4471 49.9537 30.4613 50.1708C30.4826 50.7614 30.5289 51.3555 30.5894 51.9283Z" fill="#068E81"/>
<path d="M32.9561 32.2798C32.8786 31.9404 32.8871 31.5869 32.981 31.2516L33.4009 31.2054C33.5003 31.1797 33.6013 31.1607 33.7033 31.1485L34.059 31.0915L34.7101 31.0204C34.9912 30.9884 35.2011 30.9563 35.3434 30.9279C35.4181 30.9279 35.532 30.9279 35.6814 30.9279C35.8308 30.9279 35.9553 30.9101 36.0656 30.8959C36.1708 30.8795 36.2728 30.8471 36.3681 30.7998L36.8128 30.8247C36.8911 31.2908 36.9302 31.5541 36.9302 31.6181C37.101 32.6285 37.2255 33.397 37.286 33.9058C37.535 35.3289 37.6595 36.0677 37.6595 36.1223C37.6595 36.1768 37.8149 36.9631 38.1256 38.4811C38.4209 40.0216 38.5846 40.8328 38.6166 40.9075C38.6474 41.1115 38.919 42.2974 39.4313 44.4653L39.5025 44.7713L39.595 44.5827C39.6922 44.0063 40.0278 42.5204 40.6018 40.1248C40.6303 40.0003 40.6801 39.769 40.7513 39.4452C40.8224 39.1215 40.8722 38.8724 40.9042 38.7017C40.9363 38.5309 41.0572 38.1893 41.1853 37.7766C41.3134 37.3639 41.3952 37.0651 41.4415 36.8552C41.6905 35.8922 41.9004 35.036 42.0712 34.2864C42.1969 33.7599 42.3368 33.0602 42.491 32.1873C42.5078 32.0695 42.5161 31.9506 42.5159 31.8316V31.5292C42.5444 31.2161 42.6938 31.0915 42.9571 31.1556C42.9879 31.2006 43.1907 31.2113 43.5655 31.1876L44.1703 31.1556H44.5901L45.0811 31.1769C45.2519 31.1769 45.4013 31.1769 45.5258 31.1769C45.6899 31.1805 45.8539 31.1722 46.0168 31.152C46.0761 31.135 46.1383 31.1304 46.1995 31.1383C46.2607 31.1463 46.3196 31.1667 46.3726 31.1983C46.5005 31.4138 46.5692 31.6592 46.5718 31.9098C46.5822 32.1485 46.5631 32.3875 46.5149 32.6214L46.4188 33.0412C46.1555 34.3327 46.0061 35.0727 45.9776 35.2577C45.7571 36.2065 45.3598 37.7233 44.7858 39.8081C44.7218 40.0109 44.6648 40.228 44.6115 40.4521C44.5581 40.6762 44.5012 40.9253 44.4478 41.1992C44.3944 41.4732 44.3411 41.6938 44.2948 41.8645C44.2736 42.0029 44.2427 42.1396 44.2023 42.2737C44.1561 42.4373 44.1134 42.5974 44.0742 42.7504L43.9675 43.1702C43.69 44.4937 43.4884 45.5208 43.3627 46.2513C43.0188 48.0587 42.6843 49.8648 42.3594 51.6698C42.3274 51.8726 42.2882 52.1572 42.242 52.5308C42.1957 52.9044 42.1637 53.1641 42.1495 53.3028C42.095 53.7115 42.0166 54.1166 41.9147 54.516L41.5873 55.2276L41.4699 55.2739C41.3146 55.2058 41.1483 55.166 40.979 55.1565C40.8085 55.1425 40.6371 55.1425 40.4666 55.1565C40.2961 55.1685 40.1249 55.1685 39.9543 55.1565C39.8618 55.1565 39.5985 55.1564 39.2072 55.1814C39.1276 55.1894 39.049 55.2049 38.9724 55.2276L38.645 55.2988C38.393 55.2964 38.1418 55.3275 37.8979 55.3913H37.688C37.688 55.3913 37.688 55.313 37.6666 55.2027C37.6453 55.0924 37.6346 55.0106 37.6204 54.9465C37.5884 54.7615 37.5421 54.4947 37.4781 54.1532C37.414 53.8116 37.3571 53.4985 37.3038 53.221C37.2504 52.9435 37.2077 52.6767 37.1757 52.4276C37.0974 52.0078 37.012 51.5702 36.9195 51.1184C36.827 50.6665 36.7238 50.2076 36.6171 49.7415C36.5104 49.2754 36.4036 48.8556 36.3111 48.482L35.9731 47.1265C35.8415 46.6 35.7348 46.1695 35.6601 45.8421C35.2687 44.2103 34.9485 42.8251 34.6994 41.6867C34.5287 40.9111 34.3437 39.89 34.0946 38.6305C34.0021 38.1466 33.9061 37.6343 33.8136 37.09C33.7211 36.5456 33.6179 35.955 33.5111 35.3111C33.4044 34.6671 33.3084 34.1584 33.2301 33.7706C33.1269 33.1195 33.0344 32.6214 32.9561 32.2798Z" fill="#068E81"/>
<path d="M59.7621 42.7062C59.8349 42.7204 59.9056 42.7443 59.972 42.7774C60.0557 43.0736 60.0953 43.3805 60.0894 43.6882C60.0844 43.9095 60.0522 44.1294 59.9933 44.3428C59.9178 44.5722 59.9019 44.8171 59.9471 45.0544C59.9661 45.0544 59.9661 45.0971 59.9471 45.1825C59.9471 45.2714 59.9258 45.3212 59.9258 45.3354V46.047C59.9378 46.0945 59.9399 46.144 59.932 46.1924C59.924 46.2407 59.9062 46.2869 59.8795 46.3281C59.7968 46.3832 59.6972 46.4071 59.5984 46.3957H59.296H58.99C58.2287 46.3957 57.6843 46.3708 57.357 46.3708C57.108 46.3708 56.6988 46.3708 56.1296 46.3957C55.5603 46.4206 55.1298 46.417 54.8346 46.417H54.4503H53.9949C53.8626 46.4141 53.7307 46.4023 53.6 46.3814L53.4363 46.4063C53.3723 47.8698 53.3794 49.7056 53.4577 51.9138L53.5751 51.9601H57.0084L58.1753 51.9387C58.7659 51.9387 59.2426 51.9138 59.5522 51.9138C59.5806 51.9138 59.8688 51.9601 60.4132 52.0561L60.4843 52.1949C60.4587 52.4644 60.4791 52.7363 60.5448 52.9989C60.6121 53.2702 60.623 53.5523 60.5768 53.8279C60.5539 53.9669 60.5385 54.1071 60.5306 54.2477C60.5306 54.3118 60.5484 54.5146 60.5768 54.8561C60.5727 54.8748 60.5727 54.8943 60.5768 54.913C60.5794 54.9331 60.5794 54.9534 60.5768 54.9735C60.5169 55.3355 60.5014 55.7035 60.5306 56.0693L60.4843 56.2116H59.5949C59.3174 56.2116 58.8086 56.2116 58.0793 56.2436C57.3499 56.2757 56.7878 56.2792 56.3964 56.2792H50.2592C49.9548 56.2747 49.6541 56.2119 49.3733 56.0942V55.3008C49.3387 55.273 49.2987 55.2524 49.2559 55.2403C49.2115 55.2221 49.1648 55.2102 49.1172 55.2048C49.0852 54.9273 49.0709 54.7565 49.0709 54.6924C49.0709 54.6284 49.0709 54.4683 49.1172 54.2015C49.1634 53.9346 49.1634 53.7745 49.1634 53.7141C49.1777 53.5101 49.1848 53.3464 49.1848 53.2231C49.1848 53.1768 49.1528 52.7606 49.1278 51.9743C49.1029 51.188 49.0887 50.5974 49.0816 50.1954C49.0745 49.7934 49.0816 49.4838 49.0816 49.2632C49.0816 49.0427 49.0816 48.726 49.0816 48.3276C49.0816 47.9291 49.0816 47.616 49.1172 47.4061C49.1172 47.2816 49.1172 46.8582 49.1172 46.1324C49.1172 45.4066 49.1172 44.9939 49.1172 44.8836C49.1314 44.2147 49.1622 43.266 49.2097 42.0374C49.2559 40.8064 49.288 39.9454 49.3022 39.4473C49.3022 39.0239 49.3271 38.3551 49.3271 37.4372V35.7472C49.3271 35.0072 49.3342 34.4664 49.3484 34.1248C49.3641 33.9238 49.3059 33.724 49.1848 33.5627C49.1406 33.493 49.1241 33.4092 49.1385 33.3279C49.1563 33.2674 49.2239 33.0255 49.3484 32.6163C50.1622 32.3239 51.0098 32.1362 51.8709 32.0578C53.1495 31.8966 54.4356 31.8028 55.724 31.7767H55.8734L56.0371 31.7518H56.1901C57.4326 31.6271 58.6848 31.6342 59.9258 31.7731C59.9847 31.7742 60.0432 31.7826 60.1001 31.798L60.2531 31.8443L60.4132 31.9012L60.5768 31.9617C60.6121 31.9626 60.6467 31.9723 60.6773 31.9898C60.708 32.0073 60.7338 32.0322 60.7525 32.0622C60.7712 32.0921 60.7821 32.1263 60.7844 32.1615C60.7866 32.1968 60.7801 32.232 60.7654 32.2641C60.7312 32.4499 60.7312 32.6404 60.7654 32.8263C60.8269 33.2371 60.8112 33.6557 60.7191 34.0608C60.693 34.2626 60.6776 34.4657 60.6729 34.6692V35.0641C60.6551 35.1424 60.616 35.4768 60.5555 36.071H59.8439C58.3176 36.0069 57.4638 35.9856 57.2752 35.9998C57.2147 35.9998 56.9372 35.9998 56.4462 36.0567C55.9553 36.1137 55.5888 36.1172 55.3398 36.1172C54.984 36.1492 54.4681 36.1777 53.8455 36.2097C53.7815 36.22 53.7184 36.2354 53.6569 36.256C53.5787 38.8389 53.5241 40.7767 53.4933 42.0694C53.5243 42.0805 53.5565 42.0877 53.5893 42.0907C54.7563 42.1406 55.4002 42.1548 55.5248 42.1406H58.8869C59.239 42.1274 59.5851 42.234 59.8688 42.443C59.9613 42.5212 60.0111 42.5746 60.0182 42.6066C60.0153 42.6948 59.996 42.7817 59.9613 42.8628C59.9542 42.6386 59.9008 42.6137 59.7621 42.7062Z" fill="#068E81"/>
</svg>
